<svg width="80" height="80" viewBox="0 0 80 80" fill="none" xmlns="http://www.w3.org/2000/svg">
<path d="M40 80C17.9075 80 0 62.0925 0 40C0 17.9075 17.9075 0 40 0C62.0925 0 80 17.9075 80 40C80 62.0925 62.0925 80 40 80ZM67.4725 56.6775V24.995L39.9625 9.15L39.925 9.17L12.51 25.0125V56.6875L39.9475 72.4925L39.95 72.495L67.47 56.68L67.4725 56.6775ZM55.2975 51.6125L50.605 48.9225L40.135 55C40.1047 55.0178 40.0702 55.0272 40.035 55.0272C39.9998 55.0272 39.9653 55.0178 39.935 55L27.9225 48.0375L27.9175 35.925L17.365 29.875L39.86 16.6875C39.869 16.682 39.8794 16.6791 39.89 16.6791C39.9006 16.6791 39.911 16.682 39.92 16.6875L60.8125 28.6325L57.1175 30.77L39.93 20.88L24.6875 29.8275L29.975 32.865L39.94 27.07L39.945 27.065L52.12 34.0275L52.115 45.5525L62.4925 51.495L62.49 51.67L39.95 64.83L19.055 52.9L22.7125 50.7575L39.915 60.625L55.2975 51.61V51.6125ZM43.2625 37.8625V37.7775L43.26 37.7225L43.2575 37.6925L43.2525 37.63V37.61L43.245 37.5425V37.525L43.235 37.455V37.4425L43.225 37.37V37.36L43.2125 37.285L43.21 37.28L43.195 37.205L43.1925 37.1975L43.175 37.1225V37.1175C43.1703 37.0923 43.1644 37.0672 43.1575 37.0425V37.0375L43.135 36.9625V36.96L43.1125 36.88C43.0991 36.829 43.0824 36.7789 43.0625 36.73L43.0325 36.6525C43.0233 36.6272 43.0133 36.6022 43.0025 36.5775L42.97 36.5025L42.9375 36.4325L42.9025 36.3575L42.8675 36.2875L42.8275 36.2175C42.8139 36.1952 42.8005 36.1727 42.7875 36.15V36.1475C42.7746 36.1256 42.7613 36.1039 42.7475 36.0825L42.745 36.08C42.7315 36.0587 42.7173 36.0379 42.7025 36.0175V36.0125L42.66 35.9525C42.66 35.9525 42.66 35.9475 42.655 35.9475L42.6125 35.8875L42.6075 35.8825C42.5925 35.8625 42.5825 35.8425 42.565 35.8225L42.5625 35.8175L42.515 35.76L42.51 35.755L42.465 35.7L42.46 35.695L42.41 35.6425C42.41 35.64 42.41 35.6375 42.405 35.635L42.3575 35.5825C42.3554 35.5803 42.3537 35.5778 42.3525 35.575L42.305 35.525C42.2858 35.5058 42.2667 35.4867 42.2475 35.4675L42.24 35.46L42.19 35.41L42.185 35.405L42.135 35.36L42.125 35.3525L42.0725 35.305L42.065 35.2975C42.048 35.2828 42.0304 35.2686 42.0125 35.255L42.005 35.25L41.95 35.205L41.9425 35.2L41.885 35.1575L41.8775 35.1525L41.82 35.11L41.8125 35.105L41.755 35.065L41.7475 35.0625L41.6875 35.0225L41.6825 35.0175C41.6621 35.0043 41.6412 34.9918 41.62 34.98H41.615L41.55 34.94H41.545L41.4775 34.9H41.475C40.6771 34.563 39.7797 34.5477 38.9708 34.8573C38.1618 35.1668 37.5039 35.7772 37.1348 36.5608C36.7656 37.3443 36.7138 38.2403 36.9901 39.0612C37.2665 39.8821 37.8496 40.5643 38.6175 40.965L37.1675 47.595H42.6525L41.19 40.97C42.445 40.445 43.2625 39.22 43.2625 37.8625Z" fill="#0070B8"/>
</svg>
