<svg width="40" height="40" viewBox="0 0 40 40" fill="none" xmlns="http://www.w3.org/2000/svg">
<path d="M28.1063 1.25H11.8938C10.6344 1.25 9.375 2.46 9.37563 3.66937L9.375 36.3306C9.375 37.54 10.6344 38.75 11.8938 38.75H28.1063C29.3663 38.75 30.625 37.54 30.625 36.3306V3.66937C30.625 2.46 29.3656 1.25 28.1063 1.25ZM26.7875 3.30063C27.1131 3.30063 27.3781 3.5625 27.3781 3.88687C27.3781 4.21 27.1131 4.47312 26.7875 4.47312C26.4619 4.47312 26.1981 4.21 26.1981 3.88687C26.1983 3.80967 26.2137 3.73326 26.2434 3.662C26.2731 3.59074 26.3166 3.52604 26.3713 3.47159C26.426 3.41715 26.491 3.37402 26.5624 3.34469C26.6338 3.31535 26.7103 3.30038 26.7875 3.30063ZM18.4056 3.61438H21.5944C21.6925 3.61438 21.7706 3.74437 21.7706 3.90625C21.7706 4.06875 21.6925 4.20063 21.5944 4.20063H18.4056C18.3087 4.20063 18.2294 4.06875 18.2294 3.90625C18.2294 3.745 18.3087 3.61438 18.4056 3.61438ZM22.2137 36.5525C22.2136 36.6105 22.202 36.6678 22.1796 36.7213C22.1572 36.7748 22.1245 36.8233 22.0834 36.8641C22.0422 36.905 21.9934 36.9373 21.9397 36.9592C21.8861 36.9811 21.8286 36.9922 21.7706 36.9919H18.2294C18.1714 36.9922 18.1139 36.9811 18.0603 36.9592C18.0066 36.9373 17.9578 36.905 17.9166 36.8641C17.8755 36.8233 17.8428 36.7748 17.8204 36.7213C17.798 36.6678 17.7864 36.6105 17.7863 36.5525V35.6737C17.7863 35.4306 17.9844 35.2344 18.2294 35.2344H21.7706C22.0156 35.2344 22.2137 35.4306 22.2137 35.6737V36.5525ZM28.8544 34.0625H11.1456V5.9375H28.8538V34.0625H28.8544Z" fill="#0070B8"/>
<path d="M12.8704 10.332H14.8236C14.8877 10.3321 14.9512 10.3196 15.0105 10.2952C15.0698 10.2708 15.1237 10.2349 15.1691 10.1896C15.2145 10.1443 15.2505 10.0905 15.2751 10.0313C15.2997 9.97208 15.3123 9.90859 15.3123 9.84446V7.89134C15.3123 7.76171 15.2608 7.6374 15.1692 7.54574C15.0775 7.45408 14.9532 7.40259 14.8236 7.40259H12.8704C12.8063 7.40259 12.7428 7.41524 12.6836 7.43982C12.6244 7.46439 12.5706 7.50041 12.5253 7.54581C12.48 7.59122 12.4441 7.64511 12.4197 7.7044C12.3953 7.76369 12.3828 7.82721 12.3829 7.89134V9.84446C12.3829 10.1138 12.6011 10.332 12.8704 10.332Z" fill="#0070B8"/>
<path d="M16.9719 10.332H18.925C18.9891 10.3321 19.0527 10.3196 19.1119 10.2952C19.1712 10.2708 19.2251 10.2349 19.2705 10.1896C19.3159 10.1443 19.3519 10.0905 19.3765 10.0313C19.4011 9.97208 19.4138 9.90859 19.4138 9.84446V7.89134C19.4138 7.76171 19.3623 7.6374 19.2706 7.54574C19.1789 7.45408 19.0546 7.40259 18.925 7.40259H16.9719C16.9078 7.40259 16.8443 7.41524 16.785 7.43982C16.7258 7.46439 16.672 7.50041 16.6267 7.54581C16.5814 7.59122 16.5456 7.64511 16.5211 7.7044C16.4967 7.76369 16.4842 7.82721 16.4844 7.89134V9.84446C16.4844 10.1138 16.7031 10.332 16.9719 10.332Z" fill="#0070B8"/>
<path d="M21.0736 10.332H23.0267C23.0908 10.3321 23.1543 10.3196 23.2136 10.2952C23.2729 10.2708 23.3268 10.2349 23.3722 10.1896C23.4176 10.1443 23.4536 10.0905 23.4782 10.0313C23.5028 9.97208 23.5154 9.90859 23.5154 9.84446V7.89134C23.5154 7.76171 23.4639 7.6374 23.3723 7.54574C23.2806 7.45408 23.1563 7.40259 23.0267 7.40259H21.0736C21.0094 7.40259 20.9459 7.41524 20.8867 7.43982C20.8275 7.46439 20.7737 7.50041 20.7284 7.54581C20.6831 7.59122 20.6472 7.64511 20.6228 7.7044C20.5984 7.76369 20.5859 7.82721 20.5861 7.89134V9.84446C20.5861 10.1138 20.8042 10.332 21.0736 10.332Z" fill="#0070B8"/>
<path d="M25.175 10.332H27.1281C27.1923 10.3321 27.2558 10.3196 27.3151 10.2952C27.3744 10.2708 27.4282 10.2349 27.4737 10.1896C27.5191 10.1443 27.5551 10.0905 27.5796 10.0313C27.6042 9.97208 27.6169 9.90859 27.6169 9.84446V7.89134C27.6169 7.76171 27.5654 7.6374 27.4737 7.54574C27.3821 7.45408 27.2578 7.40259 27.1281 7.40259H25.175C25.1109 7.40259 25.0474 7.41524 24.9882 7.43982C24.9289 7.46439 24.8751 7.50041 24.8298 7.54581C24.7846 7.59122 24.7487 7.64511 24.7243 7.7044C24.6998 7.76369 24.6873 7.82721 24.6875 7.89134V9.84446C24.6875 10.1138 24.9063 10.332 25.175 10.332Z" fill="#0070B8"/>
<path d="M12.8704 32.8906H14.8236C14.8877 32.8907 14.9512 32.8782 15.0105 32.8538C15.0698 32.8294 15.1237 32.7935 15.1691 32.7482C15.2145 32.7029 15.2505 32.6491 15.2751 32.5899C15.2997 32.5307 15.3123 32.4672 15.3123 32.4031V30.4493C15.3123 30.3852 15.2997 30.3216 15.2751 30.2624C15.2505 30.2031 15.2145 30.1493 15.1691 30.1039C15.1237 30.0586 15.0698 30.0227 15.0105 29.9982C14.9513 29.9737 14.8877 29.9611 14.8236 29.9612H12.8704C12.8064 29.9612 12.7429 29.9738 12.6837 29.9984C12.6245 30.0229 12.5708 30.0589 12.5255 30.1042C12.4802 30.1495 12.4443 30.2033 12.4199 30.2626C12.3954 30.3218 12.3829 30.3852 12.3829 30.4493V32.4031C12.3829 32.6718 12.6011 32.8906 12.8704 32.8906Z" fill="#0070B8"/>
<path d="M16.9719 32.8906H18.925C18.9891 32.8907 19.0527 32.8782 19.1119 32.8538C19.1712 32.8294 19.2251 32.7935 19.2705 32.7482C19.3159 32.7029 19.3519 32.6491 19.3765 32.5899C19.4011 32.5307 19.4137 32.4672 19.4137 32.4031V30.4493C19.4137 30.3852 19.4011 30.3216 19.3765 30.2624C19.352 30.2031 19.316 30.1493 19.2706 30.1039C19.2252 30.0586 19.1713 30.0227 19.112 29.9982C19.0527 29.9737 18.9892 29.9611 18.925 29.9612H16.9719C16.9078 29.9612 16.8444 29.9738 16.7852 29.9984C16.726 30.0229 16.6722 30.0589 16.6269 30.1042C16.5817 30.1495 16.5458 30.2033 16.5213 30.2626C16.4968 30.3218 16.4843 30.3852 16.4844 30.4493V32.4031C16.4844 32.6718 16.7031 32.8906 16.9719 32.8906Z" fill="#0070B8"/>
<path d="M21.0736 32.8906H23.0267C23.0908 32.8907 23.1543 32.8782 23.2136 32.8538C23.2729 32.8294 23.3268 32.7935 23.3722 32.7482C23.4176 32.7029 23.4536 32.6491 23.4782 32.5899C23.5028 32.5307 23.5154 32.4672 23.5154 32.4031V30.4493C23.5154 30.3852 23.5028 30.3216 23.4782 30.2624C23.4536 30.2031 23.4176 30.1493 23.3722 30.1039C23.3269 30.0586 23.273 30.0227 23.2137 29.9982C23.1544 29.9737 23.0908 29.9611 23.0267 29.9612H21.0736C21.0095 29.9612 20.946 29.9738 20.8869 29.9984C20.8277 30.0229 20.7739 30.0589 20.7286 30.1042C20.6833 30.1495 20.6475 30.2033 20.623 30.2626C20.5985 30.3218 20.586 30.3852 20.5861 30.4493V32.4031C20.5861 32.6718 20.8042 32.8906 21.0736 32.8906Z" fill="#0070B8"/>
<path d="M25.175 32.8906H27.1281C27.1922 32.8907 27.2558 32.8782 27.3151 32.8538C27.3744 32.8294 27.4282 32.7935 27.4736 32.7482C27.519 32.7029 27.5551 32.6491 27.5796 32.5899C27.6042 32.5307 27.6169 32.4672 27.6169 32.4031V30.4493C27.6169 30.3852 27.6042 30.3216 27.5797 30.2624C27.5551 30.2031 27.5191 30.1493 27.4737 30.1039C27.4283 30.0586 27.3744 30.0227 27.3151 29.9982C27.2558 29.9737 27.1923 29.9611 27.1281 29.9612H25.175C25.1109 29.9612 25.0475 29.9738 24.9883 29.9984C24.9291 30.0229 24.8753 30.0589 24.8301 30.1042C24.7848 30.1495 24.7489 30.2033 24.7244 30.2626C24.7 30.3218 24.6874 30.3852 24.6875 30.4493V32.4031C24.6875 32.6718 24.9062 32.8906 25.175 32.8906Z" fill="#0070B8"/>
<path d="M12.8704 21.6113H14.8236C14.8877 21.6114 14.9512 21.5989 15.0105 21.5745C15.0698 21.5501 15.1237 21.5142 15.1691 21.4689C15.2145 21.4236 15.2505 21.3698 15.2751 21.3106C15.2997 21.2514 15.3123 21.1879 15.3123 21.1238V19.17C15.3123 19.1059 15.2997 19.0423 15.2751 18.9831C15.2505 18.9238 15.2145 18.87 15.1691 18.8246C15.1237 18.7793 15.0698 18.7434 15.0105 18.7189C14.9513 18.6944 14.8877 18.6818 14.8236 18.6819H12.8704C12.8064 18.6819 12.7429 18.6945 12.6837 18.7191C12.6245 18.7436 12.5708 18.7796 12.5255 18.8249C12.4802 18.8702 12.4443 18.924 12.4199 18.9833C12.3954 19.0425 12.3829 19.1059 12.3829 19.17V21.1238C12.3829 21.3931 12.6011 21.6113 12.8704 21.6113Z" fill="#0070B8"/>
<path d="M16.9719 21.6113H18.925C18.9891 21.6114 19.0527 21.5989 19.1119 21.5745C19.1712 21.5501 19.2251 21.5142 19.2705 21.4689C19.3159 21.4236 19.3519 21.3698 19.3765 21.3106C19.4011 21.2514 19.4137 21.1879 19.4137 21.1238V19.17C19.4137 19.1059 19.4011 19.0423 19.3765 18.9831C19.352 18.9238 19.316 18.87 19.2706 18.8246C19.2252 18.7793 19.1713 18.7434 19.112 18.7189C19.0527 18.6944 18.9892 18.6818 18.925 18.6819H16.9719C16.9078 18.6819 16.8444 18.6945 16.7852 18.7191C16.726 18.7436 16.6722 18.7796 16.6269 18.8249C16.5817 18.8702 16.5458 18.924 16.5213 18.9833C16.4968 19.0425 16.4843 19.1059 16.4844 19.17V21.1238C16.4844 21.3931 16.7031 21.6113 16.9719 21.6113Z" fill="#0070B8"/>
<path d="M21.0736 21.6113H23.0267C23.0908 21.6114 23.1543 21.5989 23.2136 21.5745C23.2729 21.5501 23.3268 21.5142 23.3722 21.4689C23.4176 21.4236 23.4536 21.3698 23.4782 21.3106C23.5028 21.2514 23.5154 21.1879 23.5154 21.1238V19.17C23.5154 19.1059 23.5028 19.0423 23.4782 18.9831C23.4536 18.9238 23.4176 18.87 23.3722 18.8246C23.3269 18.7793 23.273 18.7434 23.2137 18.7189C23.1544 18.6944 23.0908 18.6818 23.0267 18.6819H21.0736C21.0095 18.6819 20.946 18.6945 20.8869 18.7191C20.8277 18.7436 20.7739 18.7796 20.7286 18.8249C20.6833 18.8702 20.6475 18.924 20.623 18.9833C20.5985 19.0425 20.586 19.1059 20.5861 19.17V21.1238C20.5861 21.3931 20.8042 21.6113 21.0736 21.6113Z" fill="#0070B8"/>
<path d="M12.8704 17.852H14.8236C15.0942 17.852 15.3123 17.6332 15.3123 17.3639V15.4114C15.3123 15.2817 15.2608 15.1574 15.1692 15.0658C15.0775 14.9741 14.9532 14.9226 14.8236 14.9226H12.8704C12.8063 14.9226 12.7428 14.9353 12.6836 14.9598C12.6244 14.9844 12.5706 15.0204 12.5253 15.0658C12.48 15.1112 12.4441 15.1651 12.4197 15.2244C12.3953 15.2837 12.3828 15.3472 12.3829 15.4114V17.3639C12.3829 17.4279 12.3954 17.4914 12.4199 17.5506C12.4443 17.6098 12.4802 17.6636 12.5255 17.709C12.5708 17.7543 12.6245 17.7903 12.6837 17.8148C12.7429 17.8394 12.8064 17.852 12.8704 17.852Z" fill="#0070B8"/>
<path d="M16.9719 17.852H18.925C19.1956 17.852 19.4138 17.6332 19.4138 17.3639V15.4114C19.4138 15.2817 19.3623 15.1574 19.2706 15.0658C19.1789 14.9741 19.0546 14.9226 18.925 14.9226H16.9719C16.9078 14.9226 16.8443 14.9353 16.785 14.9598C16.7258 14.9844 16.672 15.0204 16.6267 15.0658C16.5814 15.1112 16.5456 15.1651 16.5211 15.2244C16.4967 15.2837 16.4842 15.3472 16.4844 15.4114V17.3639C16.4844 17.6332 16.7031 17.852 16.9719 17.852Z" fill="#0070B8"/>
<path d="M21.0736 17.852H23.0267C23.2973 17.852 23.5154 17.6332 23.5154 17.3639V15.4114C23.5154 15.2817 23.4639 15.1574 23.3723 15.0658C23.2806 14.9741 23.1563 14.9226 23.0267 14.9226H21.0736C21.0094 14.9226 20.9459 14.9353 20.8867 14.9598C20.8275 14.9844 20.7737 15.0204 20.7284 15.0658C20.6831 15.1112 20.6472 15.1651 20.6228 15.2244C20.5984 15.2837 20.5859 15.3472 20.5861 15.4114V17.3639C20.586 17.4279 20.5985 17.4914 20.623 17.5506C20.6475 17.6098 20.6833 17.6636 20.7286 17.709C20.7739 17.7543 20.8277 17.7903 20.8869 17.8148C20.946 17.8394 21.0095 17.852 21.0736 17.852Z" fill="#0070B8"/>
<path d="M25.175 17.852H27.1281C27.3988 17.852 27.6169 17.6332 27.6169 17.3639V15.4114C27.6169 15.2817 27.5654 15.1574 27.4737 15.0658C27.3821 14.9741 27.2578 14.9226 27.1281 14.9226H25.175C25.1109 14.9226 25.0474 14.9353 24.9882 14.9598C24.9289 14.9844 24.8751 15.0204 24.8298 15.0658C24.7846 15.1112 24.7487 15.1651 24.7243 15.2244C24.6998 15.2837 24.6873 15.3472 24.6875 15.4114V17.3639C24.6875 17.6332 24.9063 17.852 25.175 17.852Z" fill="#0070B8"/>
<path d="M12.8704 14.0925H14.8236C15.0942 14.0925 15.3123 13.8737 15.3123 13.6037V11.6506C15.3123 11.3818 15.0936 11.1631 14.8236 11.1631H12.8704C12.7411 11.1631 12.6171 11.2144 12.5257 11.3059C12.4343 11.3973 12.3829 11.5213 12.3829 11.6506V13.6037C12.3828 13.6678 12.3953 13.7314 12.4197 13.7907C12.4441 13.8499 12.48 13.9038 12.5253 13.9492C12.5706 13.9946 12.6244 14.0307 12.6836 14.0552C12.7428 14.0798 12.8063 14.0925 12.8704 14.0925Z" fill="#0070B8"/>
<path d="M16.9719 14.0925H18.925C19.1956 14.0925 19.4137 13.8737 19.4137 13.6037V11.6506C19.4137 11.3818 19.195 11.1631 18.925 11.1631H16.9719C16.8426 11.1631 16.7186 11.2144 16.6272 11.3059C16.5357 11.3973 16.4844 11.5213 16.4844 11.6506V13.6037C16.4844 13.8737 16.7031 14.0925 16.9719 14.0925Z" fill="#0070B8"/>
<path d="M21.0736 14.0925H23.0267C23.2973 14.0925 23.5154 13.8737 23.5154 13.6037V11.6506C23.5154 11.3818 23.2967 11.1631 23.0267 11.1631H21.0736C20.9443 11.1631 20.8203 11.2144 20.7288 11.3059C20.6374 11.3973 20.5861 11.5213 20.5861 11.6506V13.6037C20.5859 13.6678 20.5984 13.7314 20.6228 13.7907C20.6472 13.8499 20.6831 13.9038 20.7284 13.9492C20.7737 13.9946 20.8275 14.0307 20.8867 14.0552C20.9459 14.0798 21.0094 14.0925 21.0736 14.0925Z" fill="#0070B8"/>
<path d="M25.175 14.0925H27.1281C27.3987 14.0925 27.6169 13.8737 27.6169 13.6037V11.6506C27.6169 11.3818 27.3981 11.1631 27.1281 11.1631H25.175C25.0457 11.1631 24.9217 11.2144 24.8303 11.3059C24.7389 11.3973 24.6875 11.5213 24.6875 11.6506V13.6037C24.6875 13.8737 24.9062 14.0925 25.175 14.0925Z" fill="#0070B8"/>
</svg>
