<svg width="95" height="84" viewBox="0 0 95 84" fill="none" xmlns="http://www.w3.org/2000/svg">
<rect width="15" height="6" fill="#0070B8"/>
<rect y="6" width="6" height="10" fill="#0070B8"/>
<rect width="15" height="6" transform="matrix(-1 0 0 1 95 0)" fill="#0070B8"/>
<rect width="6" height="10" transform="matrix(-1 0 0 1 95 6)" fill="#0070B8"/>
<rect x="95" y="84" width="15" height="6" transform="rotate(-180 95 84)" fill="#0070B8"/>
<rect x="95" y="78" width="6" height="10" transform="rotate(-180 95 78)" fill="#0070B8"/>
<rect width="15" height="6" transform="matrix(1 0 0 -1 0 84)" fill="#0070B8"/>
<rect width="6" height="10" transform="matrix(1 0 0 -1 0 78)" fill="#0070B8"/>
<path d="M80 52.0618C80 69.4039 64.1595 79 48.2078 79C32.2561 79 16 69.4039 16 52.0618C16 34.7197 48.2078 9 48.2078 9C48.2078 9 80 34.7197 80 52.0618Z" fill="#0070B8"/>
<path d="M36.2997 58.9302C4.95128 61.6977 19.2577 39.9535 19.2577 39.9535C19.9726 38.5066 20.6468 37.4469 21.3617 36C21.3617 36 35.867 48.3273 38.4035 57.1512C38.7465 58.3442 38.8709 59.7753 38.8665 61.2425C39.4814 64.4924 37.7724 70 37.7724 70C37.7724 70 38.854 65.4709 38.8665 61.2425C38.5923 59.7932 37.856 58.7928 36.2997 58.9302Z" fill="white"/>
<path d="M44.3073 51.4C39.1176 41.8585 27 29.5512 27 29.5512C27.8202 28.3675 29 26.5 30 26C30 26 44.7098 39 48.3323 47.4C53.5984 59.6114 44.7098 71 44.7098 71C44.7098 71 48.1147 58.4 44.3073 51.4Z" fill="white"/>
<path d="M48.6415 56.4009C45.683 43.4793 27.4428 29 27.4428 29C27.4428 29 24.4679 31.8114 23.494 33.1001L21 36.4002C21 36.4002 36.4624 48.5205 38.25 59.401C40.0375 70.2815 33.3037 76.5943 33.3037 76.5943L39 78C39 78 51.3433 68.2013 48.6415 56.4009Z" fill="#00A7AC"/>
<path d="M34.5 58.5C34.9005 58.9106 37.9404 57.9073 38.6609 60.3709C39.3814 62.8344 38.8653 66.4096 37.9405 69.6093C36.9538 73.0233 34 77 34 77C28.2358 74.3311 24.2509 71.8675 21.3691 67.7616C18.4873 63.6556 17.9665 63.245 16.5659 57.4967C15.1652 51.7483 16.8059 46 16.8059 46C16.8059 46 17.0458 55.4437 22.0895 57.702C27.1331 59.9603 30.5066 54.4063 34.5 58.5Z" fill="#5BCDFF"/>
<path d="M28 62.2942C28 62.7274 27.8068 63 27.5 63C27.1932 63 27 62.7274 27 62.2942C27 61.8295 27.3584 61.202 27.4684 61.0206C27.4723 61.0141 27.4771 61.0089 27.4826 61.0054C27.4881 61.0018 27.494 61 27.5 61C27.506 61 27.512 61.0018 27.5174 61.0054C27.5229 61.0089 27.5278 61.0141 27.5317 61.0206C27.6416 61.202 28 61.8295 28 62.2942Z" fill="#DEFAFF"/>
<path d="M32 62.2356C32 63.3184 31.4205 64 30.5 64C29.5795 64 29 63.3184 29 62.2356C29 61.0737 30.0753 59.5051 30.4051 59.0514C30.4168 59.0353 30.4314 59.0223 30.4478 59.0135C30.4642 59.0046 30.482 59 30.5001 59C30.5181 59 30.5359 59.0046 30.5523 59.0135C30.5687 59.0223 30.5833 59.0353 30.595 59.0514C30.9247 59.5051 32 61.0737 32 62.2356Z" fill="#DEFAFF"/>
<path d="M26 59.6471C26 59.8637 26.1932 60 26.5 60C26.8068 60 27 59.8637 27 59.6471C27 59.4147 26.6416 59.101 26.5316 59.0103C26.5277 59.0071 26.5229 59.0045 26.5174 59.0027C26.5119 59.0009 26.506 59 26.5 59C26.494 59 26.488 59.0009 26.4826 59.0027C26.4771 59.0045 26.4722 59.0071 26.4683 59.0103C26.3584 59.101 26 59.4147 26 59.6471Z" fill="#DEFAFF"/>
<path d="M69.9246 60.0518C70.3133 61.9236 70.0307 63.8101 69.139 65.2963C68.2473 66.7826 66.8196 67.7468 65.1698 67.9768" stroke="#DEFAFF" stroke-width="3" stroke-linecap="round" stroke-linejoin="round"/>
</svg>
