<svg width="26" height="40" viewBox="0 0 26 40" fill="none" xmlns="http://www.w3.org/2000/svg">
<path d="M4.33333 0C1.92833 0 0 1.78 0 4V28C0 30.22 1.92833 32 4.33333 32H6.5V36H0V40H6.5C8.905 40 10.8333 38.22 10.8333 36V32H15.1667V36C15.1667 38.22 17.095 40 19.5 40H26V36H19.5V32H21.6667C24.0717 32 26 30.22 26 28V4C26 1.78 24.0717 0 21.6667 0H4.33333ZM13 5.94C14.1493 5.94 15.2515 6.36143 16.0641 7.11157C16.8768 7.86172 17.3333 8.87913 17.3333 9.94C17.3333 11.0009 16.8768 12.0183 16.0641 12.7684C15.2515 13.5186 14.1493 13.94 13 13.94C11.8507 13.94 10.7485 13.5186 9.93587 12.7684C9.12321 12.0183 8.66667 11.0009 8.66667 9.94C8.66667 8.87913 9.12321 7.86172 9.93587 7.11157C10.7485 6.36143 11.8507 5.94 13 5.94ZM8.66667 25H17.3333V28H8.66667V25Z" fill="#0070B8"/>
</svg>
