<svg width="40" height="40" viewBox="0 0 40 40" fill="none" xmlns="http://www.w3.org/2000/svg">
<path d="M39.1942 5.12553L20.8217 0.0912944C20.6 0.0304314 20.3027 0 20.0053 0C19.7079 0 19.4105 0.0304314 19.1889 0.0912944L0.816433 5.12553C0.367665 5.24726 0 5.6646 0 6.04717V27.0188C0 27.4014 0.30819 27.9057 0.681262 28.1448L19.3186 39.8218C19.5079 39.9391 19.7512 40 19.9999 40C20.2486 40 20.4973 39.9391 20.6811 39.8218L39.3185 28.1448C39.6916 27.91 39.9998 27.4057 39.9998 27.0188V6.04717C40.0106 5.6646 39.6429 5.2516 39.1942 5.12553ZM36.1177 26.1841L20.0053 36.2787L3.89292 26.1841V7.59483L20.0053 3.17792L36.1177 7.59483V26.1841ZM14.1064 20.7282L9.91614 24.0974C9.83564 24.1627 9.79048 24.251 9.79048 24.343C9.79048 24.435 9.83564 24.5233 9.91614 24.5886L11.7545 26.0667C11.9221 26.2015 12.1978 26.2015 12.3654 26.0667L16.5557 22.6975C19.5673 24.2235 23.59 23.9322 26.2123 21.8237C29.2564 19.3762 29.2564 15.4114 26.2123 12.9638C23.1683 10.5162 18.2373 10.5162 15.1932 12.9638C12.5709 15.0723 12.2086 18.3111 14.1064 20.7282ZM17.6425 14.9332C19.3348 13.5724 22.0761 13.5724 23.763 14.9332C25.4554 16.2939 25.4554 18.498 23.763 19.8544C22.0707 21.2151 19.3294 21.2151 17.6425 19.8544C15.9556 18.4936 15.9502 16.2939 17.6425 14.9332Z" fill="#0070B8"/>
</svg>
