<svg width="40" height="40" viewBox="0 0 40 40" fill="none" xmlns="http://www.w3.org/2000/svg">
<path d="M19.7445 18.1852C18.6382 26.4155 12.9877 27.8795 12.9877 33.6018C12.9877 37.1339 16.1983 40 20 40C23.8017 40 27.0102 37.1319 27.0102 33.6018C27.0102 27.8795 21.3596 26.4155 20.2533 18.1852C20.2187 17.9392 19.7792 17.9392 19.7445 18.1852ZM6.75687 0.184507C5.65057 8.41481 0 9.87687 0 15.6011C0 19.1312 3.20849 21.9993 7.01017 21.9993C10.8119 21.9993 14.0203 19.1312 14.0203 15.6011C14.0203 9.87887 8.36978 8.41481 7.26348 0.184507C7.231 -0.0615023 6.78935 -0.0615023 6.75687 0.184507ZM32.7365 0.184507C31.6302 8.41481 25.9796 9.87887 25.9796 15.6011C25.9796 19.1312 29.1881 21.9993 32.9898 21.9993C36.7915 21.9993 40 19.1312 40 15.6011C40 9.87887 34.3494 8.41481 33.2431 0.184507C33.2085 -0.0615023 32.769 -0.0615023 32.7365 0.184507Z" fill="#0070B8"/>
</svg>
