<svg width="30" height="23" viewBox="0 0 30 23" fill="none" xmlns="http://www.w3.org/2000/svg">
<path d="M18.2256 9.93705C18.3152 10.4888 18.3791 11.0405 18.3791 11.7562C18.3791 18.0042 14.7851 22.4328 9.375 22.4328C4.19512 22.4328 0 17.5419 0 11.5028C0 5.46366 4.19512 0.572754 9.375 0.572754C11.9074 0.572754 14.0177 1.64634 15.6548 3.43574L13.1096 6.28381C12.4189 5.5084 11.204 4.59882 9.375 4.59882C6.17754 4.59882 3.56836 7.68547 3.56836 11.5028C3.56836 15.3201 6.17754 18.4067 9.375 18.4067C13.084 18.4067 14.4782 15.2903 14.6956 13.6947H9.375V9.937H18.2256V9.93705ZM27.2787 10.3035V7.13077H24.5442V10.3035H21.8229V13.4915H24.5442V16.6642H27.2787V13.4915H30V10.3035H27.2787Z" fill="#A8A8A8"/>
</svg>
