<svg width="23" height="21" viewBox="0 0 23 21" fill="none" xmlns="http://www.w3.org/2000/svg">
<path d="M5.1489 20.4027H0.380335V6.78099H5.1489V20.4027ZM2.76174 4.92288C1.23712 4.92288 0 3.80219 0 2.44978C0 1.80006 0.290968 1.17695 0.808895 0.717525C1.32682 0.258101 2.02928 0 2.76174 0C3.4942 0 4.19666 0.258101 4.71459 0.717525C5.23251 1.17695 5.52348 1.80006 5.52348 2.44978C5.52348 3.80219 4.28637 4.92288 2.76174 4.92288ZM22.9959 20.4027H18.238V13.7718C18.238 12.1913 18.2019 10.1649 15.7588 10.1649C13.2797 10.1649 12.8994 11.8817 12.8994 13.6582V20.4027H8.13572V6.78099H12.7088V8.63909H12.7753C13.4119 7.56868 14.967 6.43924 17.2868 6.43924C22.1128 6.43924 23 9.25846 23 12.92V20.4027H22.9959Z" fill="#A8A8A8"/>
</svg>
