<svg width="15" height="27" viewBox="0 0 15 27" fill="none" xmlns="http://www.w3.org/2000/svg">
<path d="M15 0.737285C15 0.54403 14.9282 0.358691 14.8003 0.222039C14.6724 0.0853873 14.499 0.00861697 14.3182 0.00861697H10.9091C9.19244 -0.0827713 7.51172 0.555689 6.23417 1.7845C4.95661 3.01331 4.18607 4.73257 4.09091 6.56663V10.5014H0.681818C0.500989 10.5014 0.327566 10.5782 0.1997 10.7149C0.0718343 10.8515 0 11.0369 0 11.2301V15.0192C0 15.2124 0.0718343 15.3978 0.1997 15.5344C0.327566 15.6711 0.500989 15.7479 0.681818 15.7479H4.09091V25.512C4.09091 25.7053 4.16274 25.8906 4.29061 26.0273C4.41847 26.1639 4.5919 26.2407 4.77273 26.2407H8.86364C9.04447 26.2407 9.21789 26.1639 9.34576 26.0273C9.47362 25.8906 9.54545 25.7053 9.54545 25.512V15.7479H13.1182C13.2698 15.7502 13.4178 15.6984 13.5388 15.6008C13.6599 15.5031 13.747 15.3651 13.7864 15.2086L14.7682 11.4196C14.7953 11.3119 14.799 11.199 14.7788 11.0896C14.7587 10.9802 14.7154 10.8772 14.6522 10.7885C14.5889 10.6998 14.5075 10.6278 14.4141 10.578C14.3208 10.5283 14.218 10.5021 14.1136 10.5014H9.54545V6.56663C9.57937 6.20591 9.73788 5.87164 9.99003 5.62912C10.2422 5.38659 10.5699 5.25321 10.9091 5.25503H14.3182C14.499 5.25503 14.6724 5.17826 14.8003 5.04161C14.9282 4.90495 15 4.71961 15 4.52636V0.737285Z" fill="#A8A8A8"/>
</svg>
