<svg width="40" height="36" viewBox="0 0 40 36" fill="none" xmlns="http://www.w3.org/2000/svg">
<path d="M36.8974 13.3047L31.6584 11.5078C30.1521 10.9922 29.0381 9.87343 28.6787 8.51483L27.4287 3.79218C26.524 0.372646 21.4467 -0.671103 18.8349 2.02499L15.2342 5.75311C14.1982 6.82421 12.6139 7.38827 10.9998 7.26171L5.38261 6.82265C1.32012 6.50468 -1.40879 10.3297 0.773241 13.2945L3.78418 17.3898C4.6498 18.5672 4.78574 20.0351 4.14668 21.3148L1.92558 25.768C0.312304 28.9898 3.70761 32.3976 7.66464 31.5336L13.1334 30.3398C14.7045 29.9969 16.3717 30.3398 17.592 31.2562L21.8357 34.4461C24.9076 36.7555 29.7263 35.0375 29.9959 31.5383L30.3631 26.7055C30.4685 25.3148 31.3631 24.0594 32.756 23.3461L37.5998 20.8664C41.1029 19.0726 40.6896 14.6031 36.8974 13.3047ZM12.4998 18C12.0053 18 11.522 17.8534 11.1109 17.5787C10.6997 17.304 10.3793 16.9135 10.1901 16.4567C10.0009 15.9999 9.95137 15.4972 10.0478 15.0123C10.1443 14.5273 10.3824 14.0819 10.732 13.7322C11.0817 13.3826 11.5271 13.1445 12.0121 13.048C12.497 12.9516 12.9997 13.0011 13.4565 13.1903C13.9133 13.3795 14.3038 13.6999 14.5785 14.1111C14.8532 14.5222 14.9998 15.0055 14.9998 15.5C14.9998 16.163 14.7364 16.7989 14.2676 17.2678C13.7987 17.7366 13.1628 18 12.4998 18ZM22.4998 25.5C22.0053 25.5 21.522 25.3534 21.1109 25.0787C20.6997 24.804 20.3793 24.4135 20.1901 23.9567C20.0009 23.4999 19.9514 22.9972 20.0478 22.5123C20.1443 22.0273 20.3824 21.5819 20.732 21.2322C21.0817 20.8826 21.5271 20.6445 22.0121 20.548C22.497 20.4516 22.9997 20.5011 23.4565 20.6903C23.9133 20.8795 24.3038 21.1999 24.5785 21.6111C24.8532 22.0222 24.9998 22.5055 24.9998 23C24.9998 23.663 24.7364 24.2989 24.2676 24.7678C23.7987 25.2366 23.1628 25.5 22.4998 25.5ZM23.7498 15.5C23.5026 15.5 23.2609 15.4267 23.0553 15.2893C22.8498 15.152 22.6895 14.9568 22.5949 14.7283C22.5003 14.4999 22.4756 14.2486 22.5238 14.0061C22.572 13.7637 22.6911 13.5409 22.8659 13.3661C23.0407 13.1913 23.2634 13.0722 23.5059 13.024C23.7484 12.9758 23.9997 13.0005 24.2281 13.0951C24.4565 13.1898 24.6518 13.35 24.7891 13.5555C24.9265 13.7611 24.9998 14.0028 24.9998 14.25C24.9998 14.5815 24.8681 14.8995 24.6337 15.1339C24.3992 15.3683 24.0813 15.5 23.7498 15.5Z" fill="#0070B8"/>
</svg>
