<svg width="39" height="40" viewBox="0 0 39 40" fill="none" xmlns="http://www.w3.org/2000/svg">
<path d="M30.069 40H6.4935C2.925 40 0 37.2093 0 33.8047V22.4744C0 20.8 0.702 19.2186 1.95 18.0651L12.9285 7.75814C12.9285 7.75814 14.937 9.71163 14.9565 9.76744C15.2282 10.0586 15.3955 10.4249 15.4341 10.813C15.4727 11.2011 15.3805 11.5909 15.171 11.9256C15.1515 11.9814 11.7 16.7442 11.7 16.7442H32.5065C33.153 16.7442 33.773 16.9892 34.2301 17.4253C34.6872 17.8615 34.944 18.453 34.944 19.0698C34.944 19.6866 34.6872 20.2781 34.2301 20.7142C33.773 21.1503 33.153 21.3953 32.5065 21.3953H21.1185V22.9395H36.5625C37.209 22.9395 37.829 23.1846 38.2861 23.6207C38.7432 24.0568 39 24.6483 39 25.2651C39 25.8819 38.7432 26.4734 38.2861 26.9096C37.829 27.3457 37.209 27.5907 36.5625 27.5907H21.1185V29.1535H34.944C35.5905 29.1535 36.2105 29.3985 36.6676 29.8346C37.1247 30.2708 37.3815 30.8623 37.3815 31.4791C37.3815 32.0959 37.1247 32.6874 36.6676 33.1235C36.2105 33.5596 35.5905 33.8047 34.944 33.8047H21.1185V35.3488H30.069C30.7155 35.3488 31.3355 35.5939 31.7926 36.03C32.2497 36.4661 32.5065 37.0576 32.5065 37.6744C32.5065 38.2912 32.2497 38.8827 31.7926 39.3189C31.3355 39.755 30.7155 40 30.069 40ZM22.425 7.06977C22.425 7.06977 19.5 10.1581 19.5 12.093C19.5 15.814 25.35 15.814 25.35 12.093C25.35 10.1581 22.425 7.06977 22.425 7.06977ZM32.175 0C32.175 0 27.3 5.13488 27.3 8.37209C27.3 14.5674 37.05 14.5674 37.05 8.37209C37.05 5.13488 32.175 0 32.175 0Z" fill="#0070B8"/>
</svg>
